<svg class="svg-icon" style="width: 1em; height: 1em;vertical-align: middle;fill: currentColor;overflow: hidden;" viewBox="0 0 1024 1024" version="1.1" xmlns="http://www.w3.org/2000/svg"><path d="M876.8 659.2 620.8 512l256-147.2c25.6-12.8 38.4-51.2 19.2-76.8-12.8-25.6-51.2-38.4-76.8-19.2l-256 147.2L563.2 121.6C569.6 89.6 544 64 512 64S454.4 89.6 454.4 121.6l0 294.4-256-147.2C179.2 249.6 140.8 262.4 128 288c-12.8 25.6-6.4 64 19.2 76.8l256 147.2-256 147.2c-25.6 12.8-38.4 51.2-19.2 76.8 12.8 19.2 32 25.6 51.2 25.6 6.4 0 19.2 0 25.6-6.4l256-147.2 0 294.4C454.4 934.4 480 960 512 960s57.6-25.6 57.6-57.6L569.6 608l256 147.2c6.4 6.4 19.2 6.4 25.6 6.4 19.2 0 38.4-12.8 51.2-25.6C908.8 710.4 902.4 672 876.8 659.2z"  /></svg>