<svg class="svg-icon" style="width: 1em; height: 1em;vertical-align: middle;fill: currentColor;overflow: hidden;" viewBox="0 0 1024 1024" version="1.1" xmlns="http://www.w3.org/2000/svg"><path d="M160 87.9v847.7c0 13.3 10.7 24 24 24h656.1c13.3 0 24-10.7 24-24V87.9c0-13.3-10.7-24-24-24H184c-13.2 0-24 10.7-24 24z m640.2 52V244c0 6.6-5.4 12-12 12H236c-6.6 0-12-5.4-12-12V139.9c0-6.6 5.4-12 12-12h552.1c6.7 0 12.1 5.3 12.1 12zM224 883.6V332c0-6.6 5.4-12 12-12h552.1c6.6 0 12 5.4 12 12v551.6c0 6.6-5.4 12-12 12H236c-6.6 0-12-5.4-12-12z"  /><path d="M362.4 513.3h-80c-13.3 0-24-10.7-24-24v-80c0-13.3 10.7-24 24-24h80c13.3 0 24 10.7 24 24v80c0 13.3-10.7 24-24 24zM553.3 513.3h-80c-13.3 0-24-10.7-24-24v-80c0-13.3 10.7-24 24-24h80c13.3 0 24 10.7 24 24v80c0 13.3-10.8 24-24 24zM744.3 513.3h-80c-13.3 0-24-10.7-24-24v-80c0-13.3 10.7-24 24-24h80c13.3 0 24 10.7 24 24v80c0 13.3-10.7 24-24 24z"  /><path d="M362.3 672.5h-80c-13.3 0-24-10.7-24-24v-80c0-13.3 10.7-24 24-24h80c13.3 0 24 10.7 24 24v80c0 13.2-10.7 24-24 24zM553.2 672.5h-80c-13.3 0-24-10.7-24-24v-80c0-13.3 10.7-24 24-24h80c13.3 0 24 10.7 24 24v80c0 13.2-10.8 24-24 24zM744.2 672.5h-80c-13.3 0-24-10.7-24-24v-80c0-13.3 10.7-24 24-24h80c13.3 0 24 10.7 24 24v80c0 13.2-10.7 24-24 24z"  /><path d="M362.3 831.6h-80c-13.3 0-24-10.7-24-24v-80c0-13.3 10.7-24 24-24h80c13.3 0 24 10.7 24 24v80c0 13.2-10.7 24-24 24zM553.2 831.6h-80c-13.3 0-24-10.7-24-24v-80c0-13.3 10.7-24 24-24h80c13.3 0 24 10.7 24 24v80c0 13.2-10.8 24-24 24zM744.2 831.6h-80c-13.3 0-24-10.7-24-24v-80c0-13.3 10.7-24 24-24h80c13.3 0 24 10.7 24 24v80c0 13.2-10.7 24-24 24z"  /></svg>