<svg class="svg-icon" style="width: 1em; height: 1em;vertical-align: middle;fill: currentColor;overflow: hidden;" viewBox="0 0 1024 1024" version="1.1" xmlns="http://www.w3.org/2000/svg"><path d="M885.6 199.2l-60.8-60.8c-14-13.8-36.4-13.8-50.2 0L711 202l111 111 63.6-63.4C899.4 235.4 899.4 213 885.6 199.2z"  /><path d="M692.2 221 348.2 576 320 704 448 675.8 801.2 329.8Z"  /><path d="M768 512l0 300c0 10.2-7.8 20.2-18.4 20.2s-538-0.2-538-0.2c-11.2 0-19.6-10.8-19.6-20s0-536 0-536c0-10 9.4-20 21.2-20L512 256l64-64L174.8 192c-26 0-46.8 20.6-46.8 46.6l0 610.6c0 25.8 21 46.8 46.8 46.8l610.6 0c25.8 0 46.6-21 46.6-46.8L832 448 768 512z"  /></svg>