<svg class="svg-icon" style="width: 1em; height: 1em;vertical-align: middle;fill: currentColor;overflow: hidden;" viewBox="0 0 1024 1024" version="1.1" xmlns="http://www.w3.org/2000/svg"><path d="M947.392 365.376c0 0.768-0.384 1.28-0.384 2.048-0.256 3.584-0.768 6.976-2.112 10.432-1.6 3.84-3.968 7.168-6.784 10.112-0.128 0.128-0.192 0.128-0.32 0.256l-241.728 241.28c-6.4 6.464-14.72 8.704-23.168 8.704S656 633.28 649.6 626.816c-12.864-12.8-12.864-37.184 0-50.048L835.264 384 281.344 384C260.096 384 128 442.24 128 603.584L128 768c0 0 4.736 39.104-31.552 39.104C63.104 807.104 64 768 64 768L64 603.584c0-180.608 135.36-266.752 203.648-281.28C269.888 321.792 275.264 320 277.632 320l557.632 0-185.6-179.328c-12.864-12.8-12.864-27.328 0-40.064 12.736-12.864 33.536-12.864 46.4 0l241.728 241.6c0.64 0.64 0.896 1.408 1.344 2.048 2.24 2.688 4.352 5.44 5.76 8.704 1.344 3.584 2.048 7.36 2.24 11.136C947.136 364.544 947.392 364.928 947.392 365.376zM896 704 896 704l0 192L128 896c-64 0-64 64 0 64l768 0c35.392 0 64-28.608 64-64l0-192 0 0C960 640 896 640 896 704z"  /></svg>