<svg class="svg-icon" style="width: 1em; height: 1em;vertical-align: middle;fill: currentColor;overflow: hidden;" viewBox="0 0 1024 1024" version="1.1" xmlns="http://www.w3.org/2000/svg"><path d="M829.013333 553.6c1.706667-13.653333 2.986667-27.52 2.986667-41.6s-1.28-27.946667-2.986667-41.6l90.24-70.613333c8.106667-6.4 10.453333-17.92 5.12-27.306667l-85.333333-147.84c-5.333333-9.173333-16.426667-13.013333-26.026667-9.173333l-106.24 42.88c-21.973333-16.853333-46.08-31.146667-72.106666-42.026667L618.666667 103.253333c-1.92-10.026667-10.666667-17.92-21.333334-17.92h-170.666666c-10.666667 0-19.413333 7.893333-21.12 17.92l-16 113.066667a315.733333 315.733333 0 0 0-72.106667 42.026667L211.2 215.466667a21.333333 21.333333 0 0 0-26.026667 9.173333l-85.333333 147.84c-5.333333 9.173333-2.986667 20.693333 5.12 27.306667l90.026667 70.613333C193.28 484.053333 192 497.92 192 512s1.28 27.946667 2.986667 41.6l-90.026667 70.613333c-8.106667 6.4-10.453333 17.92-5.12 27.306667l85.333333 147.84c5.333333 9.173333 16.426667 13.013333 26.026667 9.173333l106.24-42.88c21.973333 16.853333 46.08 31.146667 72.106667 42.026667l16 113.066667c1.706667 10.026667 10.453333 17.92 21.12 17.92h170.666666c10.666667 0 19.413333-7.893333 21.12-17.92l16-113.066667a315.733333 315.733333 0 0 0 72.106667-42.026667l106.24 42.88a21.333333 21.333333 0 0 0 26.026667-9.173333l85.333333-147.84c5.333333-9.173333 2.986667-20.693333-5.12-27.306667l-90.026667-70.613333zM512 661.333333c-82.56 0-149.333333-66.773333-149.333333-149.333333s66.773333-149.333333 149.333333-149.333333 149.333333 66.773333 149.333333 149.333333-66.773333 149.333333-149.333333 149.333333z"  /></svg>