<svg class="svg-icon" style="width: 1em; height: 1em;vertical-align: middle;fill: currentColor;overflow: hidden;" viewBox="0 0 1024 1024" version="1.1" xmlns="http://www.w3.org/2000/svg"><path d="M512 0.006C229.233 0.006 0.006 229.233 0.006 512S229.233 1023.994 512 1023.994 1023.994 794.767 1023.994 512 794.767 0.006 512 0.006z m269.355 390.731L468.122 703.974c-9.763 9.763-22.56 14.645-35.355 14.645-12.796 0-25.592-4.882-35.355-14.645l-0.028-0.029-154.739-154.737c-19.526-19.526-19.527-51.185 0-70.71 19.526-19.526 51.184-19.527 70.711 0l119.411 119.41 277.878-277.88c19.525-19.526 51.184-19.527 70.711 0 19.526 19.525 19.526 51.183-0.001 70.709z"  /></svg>